<svg width="16" height="16" viewBox="0 0 16 16" fill="none" xmlns="http://www.w3.org/2000/svg">
<path id="Vector" d="M0.969388 13.5581L12.3257 2.17409L1.09121 2.44989C0.951345 2.45334 0.812179 2.42913 0.681661 2.37865C0.551142 2.32818 0.431827 2.25242 0.330527 2.15572C0.229228 2.05901 0.147928 1.94324 0.0912696 1.81502C0.0346114 1.6868 0.00370441 1.54865 0.000313054 1.40844C-0.0030783 1.26823 0.0211129 1.12872 0.0715047 0.997865C0.121897 0.867013 0.197502 0.747383 0.294006 0.645807C0.390509 0.544231 0.506019 0.462698 0.633942 0.405863C0.761866 0.349027 0.899696 0.318003 1.03956 0.31456L13.8702 7.15402e-06C14.1501 -0.000721167 14.4274 0.054168 14.686 0.161503C14.9447 0.268839 15.1795 0.426492 15.3769 0.625354C15.7791 1.0285 16.0005 1.56532 16 2.16145L15.8954 14.9571C15.8885 15.2425 15.7706 15.4989 15.5838 15.6862C15.4334 15.8374 15.2411 15.94 15.032 15.9805C14.8229 16.0211 14.6064 15.9979 14.4106 15.9138C14.2148 15.8298 14.0487 15.6888 13.9337 15.5091C13.8187 15.3294 13.7602 15.1192 13.7656 14.9057L13.8557 3.66022L2.47563 15.068C2.27583 15.2683 2.00486 15.3809 1.72235 15.3809C1.43983 15.381 1.1689 15.2685 0.969161 15.0683C0.769421 14.868 0.657233 14.5965 0.657276 14.3133C0.657319 14.03 0.769588 13.7584 0.969388 13.5581Z" fill="#171717"/>
</svg>
