<svg width="42" height="42" viewBox="0 0 42 42" fill="none" xmlns="http://www.w3.org/2000/svg">
<g id="Group 35">
<circle id="Ellipse 1" cx="21" cy="21" r="21" fill="#3C8AFF"/>
<path id="Vector" d="M15.1806 19.772L25.4273 19.7592L20.2408 14.7009C20.1762 14.638 20.1244 14.5626 20.0883 14.479C20.0523 14.3955 20.0326 14.3054 20.0306 14.214C20.0285 14.1226 20.044 14.0317 20.0763 13.9463C20.1085 13.861 20.1569 13.783 20.2185 13.7167C20.2802 13.6504 20.3539 13.5972 20.4356 13.56C20.5173 13.5229 20.6052 13.5026 20.6945 13.5002C20.7837 13.4979 20.8725 13.5136 20.9558 13.5464C21.039 13.5792 21.1151 13.6285 21.1797 13.6915L27.1028 19.4686C27.2293 19.5975 27.3295 19.7508 27.3977 19.9197C27.4659 20.0887 27.5006 20.2698 27.5 20.4528C27.4995 20.8245 27.3574 21.1744 27.0886 21.4494L21.2758 27.3073C21.1441 27.4359 20.9754 27.4998 20.8069 27.5C20.6709 27.5004 20.5381 27.459 20.4256 27.3812C20.3131 27.3034 20.226 27.1927 20.1756 27.0636C20.1253 26.9344 20.114 26.7926 20.1431 26.6566C20.1723 26.5206 20.2406 26.3965 20.3393 26.3005L25.447 21.1514L15.1789 21.1642C14.9986 21.1644 14.8258 21.0913 14.6985 20.9609C14.5712 20.8306 14.4998 20.6536 14.5 20.469C14.5002 20.2844 14.572 20.1072 14.6997 19.9765C14.8273 19.8458 15.0003 19.7723 15.1806 19.772Z" fill="white"/>
</g>
</svg>
