<?xml version="1.0" standalone="no"?>
<!DOCTYPE svg PUBLIC "-//W3C//DTD SVG 20010904//EN"
 "http://www.w3.org/TR/2001/REC-SVG-20010904/DTD/svg10.dtd">
<svg version="1.0" xmlns="http://www.w3.org/2000/svg"
 width="42.000000pt" height="42.000000pt" viewBox="0 0 42.000000 42.000000"
 preserveAspectRatio="xMidYMid meet">

<g transform="translate(0.000000,42.000000) scale(0.100000,-0.100000)"
fill="#000000" stroke="none">
<path d="M170 245 l-34 -35 34 -35 c18 -19 36 -33 39 -30 2 3 -6 16 -19 30
l-23 25 46 0 c26 0 47 4 47 9 0 5 -20 7 -45 6 -25 -2 -45 0 -45 3 0 3 10 16
22 29 12 13 19 25 17 28 -3 3 -21 -11 -39 -30z"/>
</g>
</svg>
