<svg width="19" height="24" viewBox="0 0 19 24" fill="none" xmlns="http://www.w3.org/2000/svg">
<g id="Vector">
<path d="M5.06706 15.216C4.84856 15.216 4.70131 15.2376 4.62531 15.2592V16.6728C4.71556 16.6944 4.82837 16.7004 4.98394 16.7004C5.55275 16.7004 5.90306 16.41 5.90306 15.9204C5.90306 15.48 5.60144 15.216 5.06706 15.216ZM9.20788 15.2304C8.97038 15.2304 8.816 15.252 8.72456 15.2736V18.4056C8.816 18.4272 8.96325 18.4272 9.09625 18.4272C10.0664 18.4344 10.6982 17.8944 10.6982 16.752C10.7053 15.756 10.1294 15.2304 9.20788 15.2304Z" fill="white"/>
<path d="M11.875 0H2.375C1.74511 0 1.14102 0.252856 0.695621 0.702944C0.250222 1.15303 0 1.76348 0 2.4V21.6C0 22.2365 0.250222 22.847 0.695621 23.2971C1.14102 23.7471 1.74511 24 2.375 24H16.625C17.2549 24 17.859 23.7471 18.3044 23.2971C18.7498 22.847 19 22.2365 19 21.6V7.2L11.875 0ZM6.52888 17.028C6.16194 17.376 5.62044 17.532 4.98987 17.532C4.86761 17.5333 4.7454 17.5261 4.62413 17.5104V19.2216H3.5625V14.4984C4.04106 14.4264 4.52556 14.3928 5.01006 14.4C5.6715 14.4 6.14175 14.5272 6.45881 14.7828C6.76044 15.0252 6.96469 15.4224 6.96469 15.8904C6.9635 16.3608 6.80913 16.758 6.52888 17.028ZM11.0497 18.654C10.5509 19.0728 9.79213 19.272 8.86469 19.272C8.30894 19.272 7.91588 19.236 7.64869 19.2V14.4996C8.12796 14.4289 8.61191 14.3956 9.09625 14.4C9.99519 14.4 10.5794 14.5632 11.0354 14.9112C11.5283 15.2808 11.837 15.87 11.837 16.716C11.837 17.6316 11.5057 18.264 11.0497 18.654ZM15.4375 15.324H13.6183V16.4172H15.3188V17.298H13.6183V19.2228H12.5424V14.436H15.4375V15.324ZM10.6875 8.4V2.4L16.625 8.4H10.6875Z" fill="white"/>
</g>
</svg>
